<svg width="800" height="880" viewBox="0 0 800 880" fill="none" xmlns="http://www.w3.org/2000/svg" role="img" aria-label="Jewel Legend game cover">
  <rect width="800" height="880" rx="36" fill="#0A1024"/>
  <rect width="800" height="880" rx="36" fill="url(#bg)"/>
  <rect x="0" y="0" width="800" height="640" rx="36" fill="url(#scene)"/>
  <circle cx="158" cy="162" r="182" fill="#38BDF8" fill-opacity="0.2"/>
  <circle cx="640" cy="176" r="174" fill="#E879F9" fill-opacity="0.18"/>
  <rect x="132" y="120" width="536" height="408" rx="36" fill="#31204F" fill-opacity="0.54" stroke="#FDE68A" stroke-opacity="0.28" stroke-width="4"/>
  <path d="M206 120V528M280 120V528M354 120V528M428 120V528M502 120V528M576 120V528" stroke="#F8FAFC" stroke-opacity="0.12" stroke-width="4"/>
  <path d="M132 198H668M132 276H668M132 354H668M132 432H668" stroke="#F8FAFC" stroke-opacity="0.12" stroke-width="4"/>
  <g>
    <path d="M250 206L292 248L250 290L208 248L250 206Z" fill="#60A5FA"/>
    <path d="M250 214L282 248L250 282L218 248L250 214Z" fill="#BFDBFE"/>
    <path d="M402 182L454 234L402 286L350 234L402 182Z" fill="#F472B6"/>
    <path d="M402 190L442 234L402 278L362 234L402 190Z" fill="#FBCFE8"/>
    <path d="M550 222L596 268L550 314L504 268L550 222Z" fill="#22D3EE"/>
    <path d="M550 230L586 268L550 306L514 268L550 230Z" fill="#CFFAFE"/>
    <path d="M282 334L334 386L282 438L230 386L282 334Z" fill="#A78BFA"/>
    <path d="M282 342L322 386L282 430L242 386L282 342Z" fill="#E9D5FF"/>
    <path d="M430 338L482 390L430 442L378 390L430 338Z" fill="#FBBF24"/>
    <path d="M430 346L470 390L430 434L390 390L430 346Z" fill="#FEF3C7"/>
    <path d="M560 350L612 402L560 454L508 402L560 350Z" fill="#34D399"/>
    <path d="M560 358L600 402L560 446L520 402L560 358Z" fill="#D1FAE5"/>
  </g>
  <path d="M212 502L610 126" stroke="#FFF7AE" stroke-opacity="0.35" stroke-width="10" stroke-linecap="round"/>
  <path d="M140 452L668 286" stroke="#FFF7AE" stroke-opacity="0.24" stroke-width="8" stroke-linecap="round"/>
  <circle cx="474" cy="206" r="8" fill="#FFF7AE"/>
  <circle cx="184" cy="320" r="10" fill="#F8FAFC"/>
  <circle cx="624" cy="420" r="10" fill="#F8FAFC"/>
  <circle cx="372" cy="470" r="8" fill="#FFF7AE"/>
  <rect x="56" y="678" width="688" height="148" rx="30" fill="#0B1020" fill-opacity="0.93" stroke="#F59E0B" stroke-opacity="0.28" stroke-width="2"/>
  <text x="86" y="734" fill="#E9D5FF" font-family="Arial, Helvetica, sans-serif" font-size="24" font-weight="700" letter-spacing="4">MATCH-3 PUZZLE</text>
  <text x="86" y="794" fill="white" font-family="Arial, Helvetica, sans-serif" font-size="60" font-weight="800">JEWEL LEGEND</text>
  <defs>
    <linearGradient id="bg" x1="88" y1="42" x2="708" y2="836" gradientUnits="userSpaceOnUse">
      <stop stop-color="#111E46"/>
      <stop offset="0.5" stop-color="#32175A"/>
      <stop offset="1" stop-color="#0A1320"/>
    </linearGradient>
    <linearGradient id="scene" x1="84" y1="56" x2="716" y2="614" gradientUnits="userSpaceOnUse">
      <stop stop-color="#223C77"/>
      <stop offset="0.48" stop-color="#52236F"/>
      <stop offset="1" stop-color="#1F1B4A"/>
    </linearGradient>
  </defs>
</svg>
